<?xml version="1.0" encoding="UTF-8"?>
<svg xmlns="http://www.w3.org/2000/svg" viewBox="0 0 512 512">
<defs>
<radialGradient id="glow" cx="50%" cy="50%" r="55%">
<stop offset="0%" stop-color="#fff9cf" stop-opacity="1"/>
<stop offset="65%" stop-color="#ffe48d" stop-opacity=".35"/>
<stop offset="100%" stop-color="#ffe48d" stop-opacity="0"/>
</radialGradient>
<linearGradient id="moonGrad" x1="0" y1="0" x2="1" y2="1">
<stop offset="0%" stop-color="#fff8d6"/>
<stop offset="100%" stop-color="#ffd86e"/>
</linearGradient>
<linearGradient id="cloud" x1="0" y1="0" x2="1" y2="1">
<stop offset="0%" stop-color="#243d77"/>
<stop offset="100%" stop-color="#08152f"/>
</linearGradient>
<mask id="crescent">
<rect width="100%" height="100%" fill="black"/>
<circle cx="280" cy="220" r="95" fill="white"/>
<circle cx="325" cy="180" r="95" fill="black"/>
</mask>
<style>
.star{fill:#fff6cf;opacity:.25}
.a{animation:t 2.2s infinite}.b{animation:t 3s .5s infinite}.c{animation:t 2.7s 1s infinite}.d{animation:t 3.4s 1.4s infinite}.e{animation:t 2.5s .8s infinite}
@keyframes t{0%,100%{opacity:.2}50%{opacity:1}}
</style>
</defs>
<circle cx="280" cy="220" r="150" fill="url(#glow)"/>
<g mask="url(#crescent)"><circle cx="280" cy="220" r="95" fill="url(#moonGrad)"/></g>
<g>
<path class="star a" d="M80 90h4v10h10v4H84v10h-4v-10H70v-4h10z"/>
<path class="star b" d="M180 50h4v10h10v4h-10v10h-4V64h-10v-4h10z"/>
<path class="star c" d="M395 70h4v10h10v4h-10v10h-4V84h-10v-4h10z"/>
<path class="star d" d="M420 180h4v10h10v4h-10v10h-4v-10h-10v-4h10z"/>
<path class="star e" d="M120 250h4v10h10v4h-10v10h-4v-10h-10v-4h10z"/>
<path class="star a" d="M380 310h4v10h10v4h-10v10h-4v-10h-10v-4h10z"/>
<path class="star b" d="M95 360h4v10h10v4h-10v10h-4v-10H85v-4h10z"/>
</g>
<g fill="url(#cloud)">
<path d="M65 360c0-36 29-65 65-65 27 0 50 14 61 36 8-4 18-6 28-6 39 0 71 27 77 63H65z"/>
<path d="M290 255c0-24 20-44 44-44 17 0 31 8 38 22 4-1 8-2 13-2 23 0 42 19 42 42H290z"/>
</g>
</svg>
